<?xml version="1.0" encoding="UTF-8"?>
<svg width="314px" height="334px" viewBox="0 0 314 334" version="1.1" xmlns="http://www.w3.org/2000/svg" xmlns:xlink="http://www.w3.org/1999/xlink">
    <title>favicon</title>
    <g id="Page-1" stroke="none" stroke-width="1" fill="none" fill-rule="evenodd">
        <g id="Artboard" transform="translate(-105.000000, -106.000000)">
            <g id="favicon" transform="translate(105.000000, 106.000000)">
                <path d="M167,0 C211.818864,0 252.514055,17.6555397 282.509919,46.3909635 C257.937743,28.5331173 227.698942,18 195,18 C112.709572,18 46,84.7095723 46,167 C46,249.290428 112.709572,316 195,316 C227.698942,316 257.937743,305.466883 282.508523,287.608528 C252.514055,316.34446 211.818864,334 167,334 C74.7684468,334 0,259.231553 0,167 C0,74.7684468 74.7684468,0 167,0 Z" id="Combined-Shape" fill="#7935AF"></path>
                <path d="M217.555871,52 C256.454803,52 290.842906,71.3131589 311.654364,100.873662 C294.697808,83.6668134 271.122523,73 245.055871,73 C193.417246,73 151.555871,114.861376 151.555871,166.5 C151.555871,218.138624 193.417246,260 245.055871,260 C272.346859,260 296.906947,248.307626 314,229.659012 C293.489306,261.168051 257.95537,282 217.555871,282 C154.043124,282 102.555871,230.512746 102.555871,167 C102.555871,103.487254 154.043124,52 217.555871,52 Z" id="Combined-Shape-Copy" fill="#4277AD" transform="translate(208.277935, 167.000000) rotate(-180.000000) translate(-208.277935, -167.000000) "></path>
            </g>
        </g>
    </g>
</svg>